<svg id="Capa_1" data-name="Capa 1" xmlns="http://www.w3.org/2000/svg" viewBox="0 0 1200 200"><defs><style>.cls-1{fill:none;}.cls-1,.cls-3{stroke:#211915;stroke-miterlimit:10;}.cls-2{fill:#211915;}.cls-3{fill:#3e9841;}</style></defs><title>grafic</title><path class="cls-1" d="M-17.93,132.33,98.94,69.67s-32.53-47,34.94,0,24.1,47,67.47,47S315.81,109.84,414.6,100,613.4,32.33,745.93,73.29s334.94,51.81,354.21,7.23,91.28-56.63,99.86,0"/><path class="cls-1" d="M29.06-54.42C41.11,14.25,142.31,282.93,223,243.17S362.8-140,508.58-108.64,739.9,205.82,825.45,189,920.63,9.43,992.92,37.14s31.32,133.74,97.59,80.73S1177.25,1,1186.89,7"/><path class="cls-2" d="M49.73,213.57C61.12,135.19,76.5,53.62,125.55-10.93A227.46,227.46,0,0,1,170.2-55.56l-3.76-2.15c9.14,123.55-11.3,246.57-12.22,370A861.91,861.91,0,0,0,159.35,417c.23,2,2.62,3.45,4.27,1.76,45.81-46.93,82.07-101.91,115.27-158.19,33.65-57,64.52-115.74,100.89-171.12C400.45,58,422.93,27.75,448.35-.06l-4.26-1.77q9.09,108.69,9.53,217.84.11,31.32-.51,62.62c-.05,2.62,3.34,3.23,4.66,1.27,64-94.84,106.34-202.2,169-297.85A634.67,634.67,0,0,1,685.6-95.09l-4.18-2.43L637.56,208.26l-12.47,86.91c-.22,1.53.62,3.22,2.41,3.16,13.87-.44,24.69-9.17,33.37-19.29,11.17-13,20.78-27.59,30.94-41.42l68.79-93.69h-4.31c11.23,26.17-20.44,62.84,4,84.63a2.54,2.54,0,0,0,3.54,0A2238.7,2238.7,0,0,0,923.11,15.08Q943.93-16.6,963.67-49h-4.32c9.67,18.07,34.47,13.46,47.42,2.17,18-15.64,28.39-50.41,56.93-48.82l-2.41-3.17a1352.62,1352.62,0,0,0-46,212,2.57,2.57,0,0,0,1.15,2.82l20.39,9.4a2.63,2.63,0,0,0,3-.39,637.88,637.88,0,0,1,71.77-57.72l-3.67-1.49a42.92,42.92,0,0,0,25.58,26.71l-1.84-2.42a478.89,478.89,0,0,1-10,60.81c-.73,3.14,4.09,4.47,4.82,1.33a488.74,488.74,0,0,0,10.22-62.14,2.54,2.54,0,0,0-1.83-2.41,37.5,37.5,0,0,1-22.09-23.21c-.47-1.42-2.27-2.46-3.67-1.49a647.27,647.27,0,0,0-72.79,58.49l3-.39-20.39-9.39,1.15,2.82a1353.75,1353.75,0,0,1,46-212,2.52,2.52,0,0,0-2.41-3.16c-23.06-1.29-36.44,20.21-48.34,36.47-6.57,9-14.49,18.4-25.7,21.33-9.55,2.5-21,.68-26-8.68a2.53,2.53,0,0,0-4.32,0A2227.77,2227.77,0,0,1,807.53,167q-23.14,29.39-47.27,58h3.54c-12-10.7-7-27.83-3.91-41.42,3.17-13.87,6.56-28.56.71-42.19-.82-1.92-3.35-1.32-4.31,0l-63.66,86.68c-10.16,13.84-20.09,27.89-30.54,41.52-8.58,11.2-19.47,23.24-34.59,23.72l2.41,3.17L673.78-9.29l12.46-86.9c.32-2.22-2.31-4.5-4.18-2.44C604.7-12.68,558.7,94.57,503.42,194.75c-15.56,28.19-31.94,55.93-50,82.62l4.65,1.26q2.1-109-4.49-218-1.9-31.25-4.53-62.46c-.17-2-2.7-3.48-4.27-1.76-44.34,48.5-79.54,104.26-112.41,160.91-33.18,57.2-64.33,115.72-101.65,170.4-21.18,31-44.42,60.65-70.68,87.55l4.27,1.77c-14.16-123.19,5.2-246.53,8.9-369.72a1013.77,1013.77,0,0,0-1.81-105c-.13-1.68-2.11-3.4-3.76-2.16C104.23-12.44,73.43,63.81,57.47,139c-5.15,24.23-9,48.7-12.56,73.21-.46,3.14,4.36,4.5,4.82,1.33Z"/><path class="cls-2" d="M180.92-55.27C233.22-48.51,264.2,1.38,304,30.09c20.35,14.69,43.7,24.48,67.29,32.68,24.79,8.62,49.88,16.46,74.78,24.76,25.55,8.51,51.62,15.9,78.69,17,27.35,1.13,54.71-3.39,81-10.66,26.82-7.42,52.68-17.79,78.38-28.38,12.89-5.31,25.75-10.68,38.73-15.79,6.38-2.51,12.78-5,19.23-7.3,6.61-2.4,13.44-4.89,20.52-5.31,12.9-.79,21.57,7.35,29.9,16a157.68,157.68,0,0,0,27.43,22.65c19.62,12.93,42.88,25.38,51.89,48.57a42.71,42.71,0,0,1,2.92,16.35c-.06,3.21,4.94,3.21,5,0,.45-23.48-17-41.93-35-54.61-10.33-7.28-21.36-13.52-31.53-21A116.82,116.82,0,0,1,799,52.67c-3.94-4.05-7.73-8.29-12.1-11.9-9.58-7.91-20.42-10.21-32.53-7.45-13.56,3.08-26.75,9.1-39.63,14.27-26.28,10.54-52.22,22-78.91,31.46s-54.14,17.12-82.35,19.71-55.83-1-83.06-8.83C444.3,82.42,418.7,73,392.84,64.68c-24.75-8-49.6-16.43-72.12-29.65-44-25.85-72.37-75-122.28-91.4a94.59,94.59,0,0,0-17.52-3.9c-3.18-.41-3.15,4.59,0,5Z"/><path class="cls-2" d="M899.8,175.2c9.89-2.24,19.51-5.53,29.47-7.51a95.2,95.2,0,0,1,26.83-1.84,50.68,50.68,0,0,1,24.15,8.26c6.52,4.46,11.83,10.45,17.49,15.89,6.36,6.1,13.47,11.83,22.26,13.79,3.13.71,4.47-4.11,1.32-4.82-7.54-1.69-13.63-6.44-19.14-11.64-5.92-5.59-11.38-11.68-18-16.52-15.15-11.11-34.76-11.64-52.62-8.61-11.24,1.91-22,5.66-33.12,8.17-3.14.71-1.81,5.54,1.33,4.83Z"/><path class="cls-2" d="M1064.2,173.06a143.56,143.56,0,0,1,23-1.45c7,.24,14.28,1.35,20.6,4.59a30,30,0,0,1,9.23,7.29,2.51,2.51,0,0,0,3,.39c10.76-7.82,21.07-16.4,29.87-26.4,8.63-9.79,15.88-21,19.61-33.6a65.74,65.74,0,0,0,2.69-20,102.49,102.49,0,0,0-3.64-23.27c-2-7.64-4.45-15.15-6.59-22.75-1.85-6.59-3.8-13.59-1.1-20.2,2-4.78,5.92-8.57,10.16-11.42a72.65,72.65,0,0,1,15.5-7.61c1.34-.49,2.68-1,4-1.42,3-1,1.73-5.86-1.33-4.82-10.86,3.69-22.65,8.46-29.8,17.89a24.39,24.39,0,0,0-4.76,17.53c.87,7.93,3.74,15.68,6,23.3,4.27,14.31,8.33,29.28,5.71,44.3-2.2,12.6-8.33,24.15-16.24,34.08-8.23,10.34-18.19,19.26-28.71,27.22-1.3,1-2.61,1.94-3.92,2.9l3,.39c-10.52-12.29-27.76-14.06-42.93-13.2-4.48.26-8.95.74-13.41,1.31a2.57,2.57,0,0,0-2.5,2.5,2.51,2.51,0,0,0,2.5,2.5Z"/><rect class="cls-3" x="110.99" y="27.51" width="113.25" height="89.16"/></svg>